# xmcd CD database file
#
# Track frame offsets:
#	150
#	13650
#	26414
#	44339
#	58374
#	81737
#	93128
#	108298
#	123584
#	154250
#	168305
#	180565
#	197080
#	210717
#
# Disc length: 3054 seconds
#
# Revision: 0
# Processed by: cddbd v1.5.1PL0 Copyright (c) Steve Scherf et al.
# Submitted via: CDex 1.51
#
DISCID=be0bec0e
DTITLE=Zdrowa Woda - Nie boj sie milosci
DYEAR=1998
DGENRE=Blues
TTITLE0=Bractwo
TTITLE1=Dom
TTITLE2=Co ja mam
TTITLE3=No i co, ze jest smutno
TTITLE4=Nie boj sie milosci
TTITLE5=Kolejarze
TTITLE6=Zyc jak czlowiek
TTITLE7=Lola
TTITLE8=Zwykly czlowiek
TTITLE9=Gdy jest dobrze
TTITLE10=Okolica
TTITLE11=Kiedy bylem malym chlopcem
TTITLE12=Nie mow mi, ze mnie kochasz
TTITLE13=Szansa
EXTD=YEAR: 1998
EXTT0=
EXTT1=
EXTT2=
EXTT3=
EXTT4=
EXTT5=
EXTT6=
EXTT7=
EXTT8=
EXTT9=
EXTT10=
EXTT11=
EXTT12=
EXTT13=
PLAYORDER=
